<svg xmlns="http://www.w3.org/2000/svg" viewBox="0 0 295.31 295.31"><defs><style>.cls-1{fill:#322d9c;}.cls-2{fill:#3340a1;}.cls-3{fill:#3d9aea;}</style></defs><g id="Réteg_2" data-name="Réteg 2"><g id="Réteg_1" data-name="Réteg 1"><path class="cls-1" d="M209.38,118a147,147,0,0,1,28.49-87.2A146.86,146.86,0,0,0,161.78.68a147.27,147.27,0,0,1,11.66,57.6A147.66,147.66,0,0,1,25.78,205.94c-4.76,0-9.47-.24-14.12-.68a147.69,147.69,0,0,0,255.15,29.6A147.43,147.43,0,0,1,209.38,118Z"/><path class="cls-2" d="M173.44,58.28A147.27,147.27,0,0,0,161.78.68q-7-.67-14.12-.68a147.73,147.73,0,0,0-136,205.26c4.65.44,9.36.68,14.12.68A147.66,147.66,0,0,0,173.44,58.28Z"/><path class="cls-3" d="M237.87,30.77a147.68,147.68,0,0,0,28.94,204.09A147.65,147.65,0,0,0,237.87,30.77Z"/></g></g></svg>